<svg width="130" height="25" viewBox="0 0 130 25" fill="none" xmlns="http://www.w3.org/2000/svg">
<path d="M0 0L130 0V25L0 25L17.3333 12.5L0 0Z" fill="#169613" fill-opacity="0.64"/>
<path d="M26.15 16L25.73 14.74H22.94L22.52 16H21.03L23.48 9H25.19L27.65 16H26.15ZM23.38 13.45H25.3L24.34 10.59L23.38 13.45ZM31.3097 14.68H33.9797V16H29.9297V9H31.3097V14.68ZM40.2037 16L38.7937 13.57H37.7437V16H36.3637V9H39.1637C39.8103 9 40.3603 9.22667 40.8137 9.68C41.267 10.1333 41.4937 10.68 41.4937 11.32C41.4937 11.7533 41.3703 12.1567 41.1237 12.53C40.877 12.8967 40.5503 13.1733 40.1437 13.36L41.6937 16H40.2037ZM37.7437 10.29V12.36H39.1637C39.4237 12.36 39.647 12.26 39.8337 12.06C40.0203 11.8533 40.1137 11.6067 40.1137 11.32C40.1137 11.0333 40.0203 10.79 39.8337 10.59C39.647 10.39 39.4237 10.29 39.1637 10.29H37.7437ZM45.4862 14.68H48.4362V16H44.1062V9H48.3862V10.32H45.4862V11.81H48.1362V13.11H45.4862V14.68ZM55.6164 16L55.1964 14.74H52.4064L51.9864 16H50.4964L52.9464 9H54.6564L57.1164 16H55.6164ZM52.8464 13.45H54.7664L53.8064 10.59L52.8464 13.45ZM62.1761 9C63.1361 9 63.9361 9.33667 64.5761 10.01C65.2228 10.6833 65.5461 11.5133 65.5461 12.5C65.5461 13.4867 65.2228 14.3167 64.5761 14.99C63.9361 15.6633 63.1361 16 62.1761 16H59.3961V9H62.1761ZM62.1761 14.68C62.7828 14.68 63.2761 14.48 63.6561 14.08C64.0361 13.6733 64.2261 13.1467 64.2261 12.5C64.2261 11.8533 64.0361 11.33 63.6561 10.93C63.2761 10.5233 62.7828 10.32 62.1761 10.32H60.7761V14.68H62.1761ZM73.1572 9L70.7572 13.27V16H69.3872V13.27L66.9972 9H68.5572L70.0772 11.92L71.5972 9H73.1572ZM83.7581 12.37C84.3715 12.7233 84.6781 13.2567 84.6781 13.97C84.6781 14.5633 84.4681 15.05 84.0481 15.43C83.6281 15.81 83.1115 16 82.4981 16H79.5281V9H82.2881C82.8881 9 83.3915 9.18667 83.7981 9.56C84.2115 9.92667 84.4181 10.3967 84.4181 10.97C84.4181 11.55 84.1981 12.0167 83.7581 12.37ZM82.2881 10.29H80.9081V11.83H82.2881C82.5015 11.83 82.6781 11.7567 82.8181 11.61C82.9648 11.4633 83.0381 11.28 83.0381 11.06C83.0381 10.84 82.9681 10.6567 82.8281 10.51C82.6881 10.3633 82.5081 10.29 82.2881 10.29ZM82.4981 14.71C82.7315 14.71 82.9248 14.6333 83.0781 14.48C83.2315 14.32 83.3081 14.12 83.3081 13.88C83.3081 13.6467 83.2315 13.4533 83.0781 13.3C82.9248 13.14 82.7315 13.06 82.4981 13.06H80.9081V14.71H82.4981ZM93.0728 15.09C92.3661 15.79 91.5061 16.14 90.4928 16.14C89.4795 16.14 88.6195 15.79 87.9128 15.09C87.2128 14.3833 86.8628 13.52 86.8628 12.5C86.8628 11.48 87.2128 10.62 87.9128 9.92C88.6195 9.21333 89.4795 8.86 90.4928 8.86C91.5061 8.86 92.3661 9.21333 93.0728 9.92C93.7795 10.62 94.1328 11.48 94.1328 12.5C94.1328 13.52 93.7795 14.3833 93.0728 15.09ZM88.8828 14.15C89.3161 14.5767 89.8528 14.79 90.4928 14.79C91.1328 14.79 91.6695 14.5767 92.1028 14.15C92.5361 13.7167 92.7528 13.1667 92.7528 12.5C92.7528 11.8333 92.5361 11.2833 92.1028 10.85C91.6695 10.4167 91.1328 10.2 90.4928 10.2C89.8528 10.2 89.3161 10.4167 88.8828 10.85C88.4495 11.2833 88.2328 11.8333 88.2328 12.5C88.2328 13.1667 88.4495 13.7167 88.8828 14.15ZM99.2639 16.14C98.4839 16.14 97.8439 15.92 97.3439 15.48C96.8439 15.04 96.5939 14.45 96.5939 13.71V9H97.9639V13.6C97.9639 13.9667 98.0672 14.2567 98.2739 14.47C98.4872 14.6833 98.8172 14.79 99.2639 14.79C99.7106 14.79 100.037 14.6833 100.244 14.47C100.457 14.2567 100.564 13.9667 100.564 13.6V9H101.944V13.71C101.944 14.45 101.694 15.04 101.194 15.48C100.694 15.92 100.051 16.14 99.2639 16.14ZM111.657 12.24V12.78C111.657 13.78 111.337 14.59 110.697 15.21C110.057 15.83 109.23 16.14 108.217 16.14C107.137 16.14 106.24 15.79 105.527 15.09C104.82 14.3833 104.467 13.5233 104.467 12.51C104.467 11.49 104.817 10.6267 105.517 9.92C106.224 9.21333 107.097 8.86 108.137 8.86C108.79 8.86 109.387 9.01 109.927 9.31C110.467 9.60333 110.887 9.99667 111.187 10.49L110.007 11.17C109.84 10.8833 109.587 10.65 109.247 10.47C108.914 10.29 108.54 10.2 108.127 10.2C107.46 10.2 106.91 10.42 106.477 10.86C106.05 11.2933 105.837 11.8433 105.837 12.51C105.837 13.17 106.054 13.7167 106.487 14.15C106.927 14.5767 107.507 14.79 108.227 14.79C108.76 14.79 109.2 14.6733 109.547 14.44C109.9 14.2 110.14 13.8733 110.267 13.46H108.147V12.24H111.657ZM118.219 9H119.589V16H118.219V13.1H115.619V16H114.239V9H115.619V11.78H118.219V9ZM127.119 9V10.32H125.229V16H123.849V10.32H121.969V9H127.119Z" fill="white"/>
</svg>
