<svg width="90" height="25" viewBox="0 0 90 25" fill="none" xmlns="http://www.w3.org/2000/svg">
<path d="M0 0L90 0V25L0 25L12 12.5L0 0Z" fill="#169613" fill-opacity="0.85"/>
<path d="M22.97 16.14C21.9167 16.14 21.0467 15.79 20.36 15.09C19.6733 14.39 19.33 13.5267 19.33 12.5C19.33 11.4667 19.6733 10.6033 20.36 9.91C21.0467 9.21 21.9167 8.86 22.97 8.86C23.6033 8.86 24.1867 9.01 24.72 9.31C25.26 9.60333 25.68 10.0033 25.98 10.51L24.79 11.2C24.6167 10.8867 24.37 10.6433 24.05 10.47C23.73 10.29 23.37 10.2 22.97 10.2C22.29 10.2 21.74 10.4133 21.32 10.84C20.9067 11.2667 20.7 11.82 20.7 12.5C20.7 13.1733 20.9067 13.7233 21.32 14.15C21.74 14.5767 22.29 14.79 22.97 14.79C23.37 14.79 23.73 14.7033 24.05 14.53C24.3767 14.35 24.6233 14.1067 24.79 13.8L25.98 14.49C25.68 14.9967 25.2633 15.4 24.73 15.7C24.1967 15.9933 23.61 16.14 22.97 16.14ZM34.2494 15.09C33.5427 15.79 32.6827 16.14 31.6694 16.14C30.656 16.14 29.796 15.79 29.0894 15.09C28.3894 14.3833 28.0394 13.52 28.0394 12.5C28.0394 11.48 28.3894 10.62 29.0894 9.92C29.796 9.21333 30.656 8.86 31.6694 8.86C32.6827 8.86 33.5427 9.21333 34.2494 9.92C34.956 10.62 35.3094 11.48 35.3094 12.5C35.3094 13.52 34.956 14.3833 34.2494 15.09ZM30.0594 14.15C30.4927 14.5767 31.0294 14.79 31.6694 14.79C32.3094 14.79 32.846 14.5767 33.2794 14.15C33.7127 13.7167 33.9294 13.1667 33.9294 12.5C33.9294 11.8333 33.7127 11.2833 33.2794 10.85C32.846 10.4167 32.3094 10.2 31.6694 10.2C31.0294 10.2 30.4927 10.4167 30.0594 10.85C29.626 11.2833 29.4094 11.8333 29.4094 12.5C29.4094 13.1667 29.626 13.7167 30.0594 14.15ZM44.7293 9V16H43.3593V11.46L41.3893 14.71H41.2293L39.2593 11.47V16H37.8793V9H39.2993L41.3093 12.31L43.3093 9H44.7293ZM50.2436 9C50.9169 9 51.4836 9.22667 51.9436 9.68C52.4036 10.1333 52.6336 10.69 52.6336 11.35C52.6336 12.01 52.4036 12.5667 51.9436 13.02C51.4836 13.4733 50.9169 13.7 50.2436 13.7H49.0136V16H47.6336V9H50.2436ZM50.2436 12.41C50.5369 12.41 50.7803 12.31 50.9736 12.11C51.1669 11.9033 51.2636 11.65 51.2636 11.35C51.2636 11.0433 51.1669 10.79 50.9736 10.59C50.7803 10.39 50.5369 10.29 50.2436 10.29H49.0136V12.41H50.2436ZM56.512 14.68H59.182V16H55.132V9H56.512V14.68ZM62.946 14.68H65.896V16H61.566V9H65.846V10.32H62.946V11.81H65.596V13.11H62.946V14.68ZM73.0987 9V10.32H71.2087V16H69.8287V10.32H67.9487V9H73.0987ZM76.8491 14.68H79.7991V16H75.4691V9H79.7491V10.32H76.8491V11.81H79.4991V13.11H76.8491V14.68Z" fill="white"/>
</svg>
