<svg width="98" height="25" viewBox="0 0 98 25" fill="none" xmlns="http://www.w3.org/2000/svg">
<path d="M0 0L98 0V25L0 25L13.0667 12.5L0 0Z" fill="#CD9646"/>
<path d="M19.65 9H21.03V16H19.65V9ZM27.9758 9H29.3558V16H28.3058L25.3058 11.72V16H23.9258V9H24.9758L27.9758 13.27V9ZM34.8643 9C35.5376 9 36.1043 9.22667 36.5643 9.68C37.0243 10.1333 37.2543 10.69 37.2543 11.35C37.2543 12.01 37.0243 12.5667 36.5643 13.02C36.1043 13.4733 35.5376 13.7 34.8643 13.7H33.6343V16H32.2543V9H34.8643ZM34.8643 12.41C35.1576 12.41 35.401 12.31 35.5943 12.11C35.7876 11.9033 35.8843 11.65 35.8843 11.35C35.8843 11.0433 35.7876 10.79 35.5943 10.59C35.401 10.39 35.1576 10.29 34.8643 10.29H33.6343V12.41H34.8643ZM43.5927 16L42.1827 13.57H41.1327V16H39.7527V9H42.5527C43.1994 9 43.7494 9.22667 44.2027 9.68C44.6561 10.1333 44.8827 10.68 44.8827 11.32C44.8827 11.7533 44.7594 12.1567 44.5127 12.53C44.2661 12.8967 43.9394 13.1733 43.5327 13.36L45.0827 16H43.5927ZM41.1327 10.29V12.36H42.5527C42.8127 12.36 43.0361 12.26 43.2227 12.06C43.4094 11.8533 43.5027 11.6067 43.5027 11.32C43.5027 11.0333 43.4094 10.79 43.2227 10.59C43.0361 10.39 42.8127 10.29 42.5527 10.29H41.1327ZM53.3072 15.09C52.6005 15.79 51.7405 16.14 50.7272 16.14C49.7139 16.14 48.8539 15.79 48.1472 15.09C47.4472 14.3833 47.0972 13.52 47.0972 12.5C47.0972 11.48 47.4472 10.62 48.1472 9.92C48.8539 9.21333 49.7139 8.86 50.7272 8.86C51.7405 8.86 52.6005 9.21333 53.3072 9.92C54.0139 10.62 54.3672 11.48 54.3672 12.5C54.3672 13.52 54.0139 14.3833 53.3072 15.09ZM49.1172 14.15C49.5505 14.5767 50.0872 14.79 50.7272 14.79C51.3672 14.79 51.9039 14.5767 52.3372 14.15C52.7705 13.7167 52.9872 13.1667 52.9872 12.5C52.9872 11.8333 52.7705 11.2833 52.3372 10.85C51.9039 10.4167 51.3672 10.2 50.7272 10.2C50.0872 10.2 49.5505 10.4167 49.1172 10.85C48.6839 11.2833 48.4672 11.8333 48.4672 12.5C48.4672 13.1667 48.6839 13.7167 49.1172 14.15ZM63.8071 12.24V12.78C63.8071 13.78 63.4871 14.59 62.8471 15.21C62.2071 15.83 61.3804 16.14 60.3671 16.14C59.2871 16.14 58.3904 15.79 57.6771 15.09C56.9704 14.3833 56.6171 13.5233 56.6171 12.51C56.6171 11.49 56.9671 10.6267 57.6671 9.92C58.3738 9.21333 59.2471 8.86 60.2871 8.86C60.9404 8.86 61.5371 9.01 62.0771 9.31C62.6171 9.60333 63.0371 9.99667 63.3371 10.49L62.1571 11.17C61.9904 10.8833 61.7371 10.65 61.3971 10.47C61.0638 10.29 60.6904 10.2 60.2771 10.2C59.6104 10.2 59.0604 10.42 58.6271 10.86C58.2004 11.2933 57.9871 11.8433 57.9871 12.51C57.9871 13.17 58.2038 13.7167 58.6371 14.15C59.0771 14.5767 59.6571 14.79 60.3771 14.79C60.9104 14.79 61.3504 14.6733 61.6971 14.44C62.0504 14.2 62.2904 13.8733 62.4171 13.46H60.2971V12.24H63.8071ZM70.2287 16L68.8187 13.57H67.7687V16H66.3887V9H69.1887C69.8353 9 70.3853 9.22667 70.8387 9.68C71.292 10.1333 71.5187 10.68 71.5187 11.32C71.5187 11.7533 71.3953 12.1567 71.1487 12.53C70.902 12.8967 70.5753 13.1733 70.1687 13.36L71.7187 16H70.2287ZM67.7687 10.29V12.36H69.1887C69.4487 12.36 69.672 12.26 69.8587 12.06C70.0453 11.8533 70.1387 11.6067 70.1387 11.32C70.1387 11.0333 70.0453 10.79 69.8587 10.59C69.672 10.39 69.4487 10.29 69.1887 10.29H67.7687ZM75.5113 14.68H78.4613V16H74.1313V9H78.4113V10.32H75.5113V11.81H78.1613V13.11H75.5113V14.68ZM83.424 16.14C82.7307 16.14 82.1473 15.9867 81.674 15.68C81.2007 15.3667 80.8673 14.9433 80.674 14.41L81.854 13.72C82.1273 14.4333 82.664 14.79 83.464 14.79C83.8507 14.79 84.134 14.72 84.314 14.58C84.494 14.44 84.584 14.2633 84.584 14.05C84.584 13.8033 84.474 13.6133 84.254 13.48C84.034 13.34 83.6407 13.19 83.074 13.03C82.7607 12.9367 82.494 12.8433 82.274 12.75C82.0607 12.6567 81.844 12.5333 81.624 12.38C81.4107 12.22 81.2473 12.02 81.134 11.78C81.0207 11.54 80.964 11.26 80.964 10.94C80.964 10.3067 81.1873 9.80333 81.634 9.43C82.0873 9.05 82.6307 8.86 83.264 8.86C83.8307 8.86 84.3273 9 84.754 9.28C85.1873 9.55333 85.524 9.93667 85.764 10.43L84.604 11.1C84.324 10.5 83.8773 10.2 83.264 10.2C82.9773 10.2 82.7507 10.2667 82.584 10.4C82.424 10.5267 82.344 10.6933 82.344 10.9C82.344 11.12 82.434 11.3 82.614 11.44C82.8007 11.5733 83.154 11.72 83.674 11.88C83.8873 11.9467 84.0473 12 84.154 12.04C84.2673 12.0733 84.4173 12.13 84.604 12.21C84.7973 12.2833 84.944 12.3533 85.044 12.42C85.1507 12.4867 85.2707 12.5767 85.404 12.69C85.5373 12.8033 85.6373 12.92 85.704 13.04C85.7773 13.16 85.8373 13.3067 85.884 13.48C85.9373 13.6467 85.964 13.83 85.964 14.03C85.964 14.6767 85.7273 15.19 85.254 15.57C84.7873 15.95 84.1773 16.14 83.424 16.14ZM90.6392 16.14C89.9459 16.14 89.3626 15.9867 88.8892 15.68C88.4159 15.3667 88.0826 14.9433 87.8892 14.41L89.0692 13.72C89.3426 14.4333 89.8792 14.79 90.6792 14.79C91.0659 14.79 91.3492 14.72 91.5292 14.58C91.7092 14.44 91.7992 14.2633 91.7992 14.05C91.7992 13.8033 91.6892 13.6133 91.4692 13.48C91.2492 13.34 90.8559 13.19 90.2892 13.03C89.9759 12.9367 89.7092 12.8433 89.4892 12.75C89.2759 12.6567 89.0592 12.5333 88.8392 12.38C88.6259 12.22 88.4626 12.02 88.3492 11.78C88.2359 11.54 88.1792 11.26 88.1792 10.94C88.1792 10.3067 88.4026 9.80333 88.8492 9.43C89.3026 9.05 89.8459 8.86 90.4792 8.86C91.0459 8.86 91.5426 9 91.9692 9.28C92.4026 9.55333 92.7392 9.93667 92.9792 10.43L91.8192 11.1C91.5392 10.5 91.0926 10.2 90.4792 10.2C90.1926 10.2 89.9659 10.2667 89.7992 10.4C89.6392 10.5267 89.5592 10.6933 89.5592 10.9C89.5592 11.12 89.6492 11.3 89.8292 11.44C90.0159 11.5733 90.3692 11.72 90.8892 11.88C91.1026 11.9467 91.2626 12 91.3692 12.04C91.4826 12.0733 91.6326 12.13 91.8192 12.21C92.0126 12.2833 92.1592 12.3533 92.2592 12.42C92.3659 12.4867 92.4859 12.5767 92.6192 12.69C92.7526 12.8033 92.8526 12.92 92.9192 13.04C92.9926 13.16 93.0526 13.3067 93.0992 13.48C93.1526 13.6467 93.1792 13.83 93.1792 14.03C93.1792 14.6767 92.9426 15.19 92.4692 15.57C92.0026 15.95 91.3926 16.14 90.6392 16.14Z" fill="white"/>
</svg>
