<svg width="24" height="22" viewBox="0 0 24 22" fill="none" xmlns="http://www.w3.org/2000/svg">
<path d="M19.5 3.40775H18.75V2.09225C18.75 1.86766 18.6995 1.64594 18.6024 1.44346C18.5052 1.24098 18.3638 1.0629 18.1886 0.922368C18.0134 0.781835 17.8089 0.682435 17.5902 0.631503C17.3714 0.580571 17.144 0.579408 16.9248 0.628098L4.3467 3.4232C3.3813 3.46177 2.46813 3.87182 1.79791 4.56773C1.12769 5.26364 0.752247 6.19158 0.75 7.15775V17.6577C0.751032 18.652 1.14645 19.6052 1.84949 20.3083C2.55253 21.0113 3.50575 21.4067 4.5 21.4077H19.5C20.4942 21.4067 21.4475 21.0113 22.1505 20.3083C22.8535 19.6052 23.249 18.652 23.25 17.6577V7.15775C23.249 6.1635 22.8535 5.21028 22.1505 4.50724C21.4475 3.8042 20.4942 3.40878 19.5 3.40775ZM17.25 2.09225V3.40775H11.3321L17.25 2.09225ZM19.5 19.9077H4.5C3.90347 19.9071 3.33157 19.6698 2.90976 19.248C2.48794 18.8262 2.25067 18.2543 2.25 17.6577V7.15775C2.25064 6.56121 2.48789 5.98928 2.90971 5.56746C3.33153 5.14564 3.90346 4.90838 4.5 4.90775H19.5C20.0965 4.90838 20.6685 5.14564 21.0903 5.56746C21.5121 5.98928 21.7494 6.56121 21.75 7.15775V7.90775H20.25C19.0565 7.90775 17.9119 8.38185 17.068 9.22577C16.2241 10.0697 15.75 11.2143 15.75 12.4077C15.75 13.6012 16.2241 14.7458 17.068 15.5897C17.9119 16.4336 19.0565 16.9077 20.25 16.9077H21.75V17.6577C21.7493 18.2543 21.5121 18.8262 21.0902 19.248C20.6684 19.6698 20.0965 19.9071 19.5 19.9077ZM21.75 15.4077H20.25C19.4544 15.4077 18.6913 15.0917 18.1287 14.5291C17.5661 13.9665 17.25 13.2034 17.25 12.4077C17.25 11.6121 17.5661 10.849 18.1287 10.2864C18.6913 9.72382 19.4544 9.40775 20.25 9.40775H21.75V15.4077Z" fill="white"/>
</svg>
