<svg width="24" height="24" viewBox="0 0 24 24" fill="none" xmlns="http://www.w3.org/2000/svg">
<path d="M2.7378 9.99825C2.40174 10.2255 2.11766 10.5214 1.90431 10.8664C1.69095 11.2115 1.55315 11.5978 1.5 12C1.55313 12.4024 1.69099 12.7889 1.90448 13.1341C2.11798 13.4793 2.40226 13.7753 2.73855 14.0025C3.01674 14.2183 3.25369 14.4825 3.438 14.7825C3.47337 15.1519 3.4383 15.5247 3.33465 15.8811C3.20094 16.2536 3.14704 16.65 3.17645 17.0447C3.20586 17.4394 3.31791 17.8235 3.50535 18.1721C3.78095 18.4599 4.11407 18.6866 4.48303 18.8373C4.852 18.988 5.24855 19.0593 5.6469 19.0467C6.01238 19.0592 6.37244 19.1388 6.70905 19.2817C6.94412 19.5547 7.12715 19.8685 7.24905 20.2075C7.36048 20.5935 7.55215 20.9517 7.81151 21.2585C8.07088 21.5653 8.39209 21.8139 8.75415 21.988C9.13997 22.0567 9.53588 22.0439 9.91645 21.9504C10.297 21.857 10.6538 21.6849 10.964 21.4453C11.2774 21.2316 11.6292 21.0804 12 21C12.3709 21.0804 12.7228 21.2316 13.0364 21.4453C13.5455 21.7931 14.1343 22.0067 14.748 22.0663C14.9171 22.0668 15.0852 22.0406 15.2461 21.9888C15.6081 21.8144 15.9292 21.5656 16.1884 21.2587C16.4476 20.9517 16.6391 20.5936 16.7505 20.2075C16.8727 19.8689 17.0553 19.5552 17.2896 19.2817C17.6266 19.1394 17.9868 19.0599 18.3524 19.0473C18.7507 19.0599 19.1473 18.9886 19.5163 18.8381C19.8854 18.6875 20.2187 18.4611 20.4946 18.1735C20.6821 17.8247 20.7941 17.4404 20.8235 17.0455C20.8529 16.6505 20.799 16.2539 20.6653 15.8811C20.5617 15.5247 20.5266 15.1519 20.562 14.7825C20.7465 14.4822 20.9837 14.2177 21.2622 14.0017C21.5983 13.7745 21.8823 13.4786 22.0957 13.1336C22.3091 12.7885 22.4468 12.4022 22.5 12C22.4469 11.5976 22.309 11.2111 22.0955 10.8659C21.882 10.5207 21.5977 10.2247 21.2614 9.9975C20.9833 9.78171 20.7463 9.51747 20.562 9.2175C20.5266 8.84806 20.5617 8.47526 20.6653 8.1189C20.7991 7.7464 20.853 7.34995 20.8236 6.95528C20.7941 6.5606 20.6821 6.17652 20.4946 5.82795C20.219 5.54005 19.8859 5.31339 19.517 5.16269C19.148 5.012 18.7515 4.94066 18.3531 4.9533C17.9876 4.94084 17.6276 4.86116 17.2909 4.71825C17.0559 4.44525 16.8729 4.13146 16.7509 3.79245C16.6395 3.40646 16.4478 3.04834 16.1885 2.74151C15.9291 2.43469 15.6079 2.18608 15.2459 2.01195C14.86 1.9434 14.4641 1.95627 14.0836 2.04973C13.703 2.14319 13.3462 2.31517 13.036 2.55465C12.7226 2.76836 12.3708 2.91957 12 3C11.6291 2.91961 11.2772 2.76839 10.9636 2.55465C10.6536 2.31501 10.2968 2.14287 9.91621 2.04928C9.53565 1.95569 9.13972 1.94272 8.75385 2.0112C8.39191 2.18559 8.07085 2.43438 7.81162 2.74131C7.5524 3.04825 7.36085 3.40643 7.2495 3.79245C7.12733 4.13114 6.94467 4.44483 6.7104 4.71825C6.37342 4.86059 6.01324 4.94005 5.64765 4.9527C5.24928 4.94014 4.85271 5.01143 4.48366 5.16195C4.11461 5.31247 3.7813 5.53886 3.50535 5.82645C3.31794 6.1753 3.2059 6.55963 3.1765 6.95454C3.14709 7.34945 3.20097 7.74614 3.33465 8.1189C3.4383 8.47526 3.47337 8.84806 3.438 9.2175C3.25348 9.51776 3.01628 9.78225 2.7378 9.99825ZM3.75 11.1057C4.23767 10.7342 4.62157 10.2434 4.8648 9.6807C5.00394 9.06635 4.98328 8.42659 4.8048 7.8225C4.7316 7.46145 4.6098 6.8565 4.71765 6.7092C4.8297 6.55545 5.4486 6.4842 5.81775 6.4419C6.44356 6.42707 7.05499 6.25116 7.593 5.93115C8.0581 5.52099 8.40996 4.99816 8.6148 4.41285C8.7798 4.0488 9.03075 3.49875 9.2175 3.43785C9.37725 3.3792 9.93165 3.6957 10.2276 3.86115C10.7549 4.22054 11.3647 4.44034 12 4.5C12.6352 4.44032 13.2449 4.22086 13.7724 3.86205C14.0683 3.69585 14.6133 3.3801 14.7825 3.43875C14.97 3.4995 15.2197 4.04955 15.3852 4.41375C15.5906 4.99875 15.9427 5.52126 16.4078 5.9313C16.9456 6.25127 17.5567 6.42756 18.1824 6.44325C18.5515 6.4857 19.1705 6.5568 19.2817 6.71055C19.3895 6.85785 19.2678 7.46205 19.1946 7.8231C19.0161 8.42719 18.9955 9.06695 19.1346 9.6813C19.3775 10.2439 19.7615 10.7343 20.2494 11.1051C20.5482 11.3782 20.9994 11.7907 20.9994 12.0001C20.9994 12.2095 20.5482 12.622 20.2494 12.8944C19.7617 13.266 19.3778 13.7567 19.1346 14.3194C18.9955 14.9338 19.0161 15.5736 19.1946 16.1776C19.2678 16.5387 19.3896 17.1436 19.2817 17.2909C19.1697 17.4447 18.5508 17.5159 18.1817 17.5582C17.556 17.5733 16.9448 17.7494 16.407 18.0694C15.9419 18.4796 15.59 19.0024 15.3852 19.5877C15.2202 19.9518 14.9692 20.5018 14.7825 20.5627C14.6125 20.614 14.0683 20.3049 13.7724 20.1395C13.2452 19.7799 12.6354 19.5598 12 19.5C11.3648 19.5597 10.7551 19.7791 10.2276 20.1379C9.93165 20.3041 9.378 20.6148 9.2175 20.5612C9.03 20.5012 8.78025 19.9504 8.6148 19.5862C8.40939 19.0012 8.05732 18.4787 7.59225 18.0687C7.05437 17.7487 6.44326 17.5724 5.8176 17.5567C5.44845 17.5143 4.82955 17.4432 4.71825 17.2894C4.61055 17.1421 4.7322 16.5379 4.8054 16.1769C4.98387 15.5728 5.00453 14.933 4.8654 14.3187C4.62229 13.7561 4.2381 13.2657 3.75 12.895C3.4512 12.6219 3 12.21 3 12C3 11.79 3.4512 11.3781 3.75 11.1057Z" fill="white"/>
<path d="M10.7183 14.7803C10.859 14.9209 11.0497 14.9999 11.2486 14.9999C11.4475 14.9999 11.6382 14.9209 11.7788 14.7803L16.2788 10.2803C16.4155 10.1389 16.4911 9.94941 16.4894 9.75276C16.4876 9.55611 16.4088 9.368 16.2697 9.22895C16.1307 9.08989 15.9425 9.01101 15.7459 9.00931C15.5492 9.0076 15.3598 9.08319 15.2183 9.21981L11.2486 13.1896L8.77885 10.7198C8.63739 10.5832 8.44794 10.5076 8.2513 10.5093C8.05465 10.511 7.86654 10.5899 7.72748 10.7289C7.58843 10.868 7.50955 11.0561 7.50784 11.2528C7.50613 11.4494 7.58173 11.6389 7.71835 11.7803L10.7183 14.7803Z" fill="white"/>
</svg>
