<svg width="24" height="24" viewBox="0 0 24 24" fill="none" xmlns="http://www.w3.org/2000/svg">
<g clip-path="url(#clip0_140_2176)">
<path d="M18.3722 1.91595L8.82588 11.4617C8.75592 11.5317 8.70042 11.6148 8.66253 11.7063L6.80658 16.215C6.75015 16.3519 6.73552 16.5025 6.76454 16.6478C6.79357 16.793 6.86494 16.9264 6.96967 17.0311C7.0744 17.1358 7.20779 17.2072 7.35303 17.2362C7.49827 17.2653 7.64885 17.2506 7.78578 17.1942L12.2939 15.3383C12.3854 15.3004 12.4685 15.2449 12.5385 15.1749L22.0842 5.628C22.2249 5.48735 22.3039 5.29659 22.3039 5.09768C22.3039 4.89877 22.2249 4.70801 22.0842 4.56735L19.4328 1.91595C19.2922 1.7753 19.1014 1.69629 18.9025 1.69629C18.7036 1.69629 18.5128 1.7753 18.3722 1.91595ZM11.5842 14.0076L8.87853 15.1217L9.99258 12.416L18.9026 3.50685L20.4933 5.0976L11.5842 14.0076Z" fill="white"/>
<path d="M21.8498 8.28151C21.6593 8.33847 21.4991 8.46877 21.4046 8.64376C21.3102 8.81875 21.289 9.0241 21.3459 9.21466C21.9631 11.2913 21.8702 13.5145 21.0819 15.5324C20.2936 17.5504 18.855 19.2479 16.9937 20.3564C15.1323 21.4649 12.9545 21.9211 10.8047 21.6529C8.65495 21.3846 6.656 20.4073 5.1241 18.8754C3.5922 17.3435 2.61482 15.3445 2.34658 13.1947C2.07834 11.045 2.53456 8.86714 3.64307 7.00578C4.75157 5.14442 6.44907 3.70581 8.46701 2.91755C10.485 2.12929 12.7081 2.03637 14.7848 2.65351C14.9741 2.70637 15.1766 2.68279 15.3487 2.58784C15.5209 2.49289 15.6488 2.33416 15.7051 2.14582C15.7614 1.95748 15.7414 1.75457 15.6496 1.58077C15.5578 1.40697 15.4014 1.27617 15.2141 1.21651C12.8173 0.503572 10.2512 0.610244 7.92181 1.51965C5.59245 2.42905 3.63285 4.08925 2.35309 6.23754C1.07333 8.38584 0.546494 10.8995 0.855947 13.3809C1.1654 15.8623 2.29347 18.1696 4.06165 19.9378C5.82984 21.706 8.13716 22.8341 10.6185 23.1435C13.0999 23.453 15.6136 22.9261 17.7619 21.6464C19.9102 20.3666 21.5704 18.407 22.4798 16.0776C23.3892 13.7483 23.4959 11.1822 22.7829 8.78536C22.755 8.69085 22.7087 8.60279 22.6466 8.52626C22.5845 8.44972 22.5079 8.38622 22.4211 8.33939C22.3344 8.29257 22.2393 8.26335 22.1412 8.25342C22.0432 8.24348 21.9441 8.25303 21.8498 8.28151Z" fill="white"/>
</g>
<defs>
<clipPath id="clip0_140_2176">
<rect width="24" height="24" fill="white"/>
</clipPath>
</defs>
</svg>
