<svg width="18" height="18" viewBox="0 0 18 18" fill="none" xmlns="http://www.w3.org/2000/svg">
<g clip-path="url(#clip0_140_491)">
<path d="M12.3735 0C11.4139 0.0663746 10.2923 0.680621 9.63865 1.48049C9.04241 2.20611 8.55191 3.28386 8.74316 4.33122C9.79165 4.36385 10.875 3.73498 11.5028 2.92161C12.09 2.16449 12.5344 1.09349 12.3735 0Z" fill="#AEAEAE"/>
<path d="M16.1665 6.03897C15.2451 4.8836 13.9503 4.2131 12.7274 4.2131C11.113 4.2131 10.4302 4.98598 9.30853 4.98598C8.15204 4.98598 7.27342 4.21535 5.8773 4.21535C4.50593 4.21535 3.04569 5.05347 2.11982 6.48672C0.818206 8.50495 1.04095 12.2996 3.15032 15.5317C3.90519 16.6882 4.91318 17.9886 6.23167 17.9999C7.40504 18.0111 7.73579 17.2473 9.32541 17.2394C10.915 17.2304 11.2165 18.01 12.3876 17.9976C13.7073 17.9875 14.7704 16.5464 15.5252 15.3899C16.0664 14.5608 16.2677 14.1434 16.6874 13.2074C13.6353 12.0453 13.1459 7.70508 16.1665 6.03897Z" fill="#AEAEAE"/>
</g>
<defs>
<clipPath id="clip0_140_491">
<rect width="18" height="18" fill="white"/>
</clipPath>
</defs>
</svg>
