<svg width="18" height="18" viewBox="0 0 18 18" fill="none" xmlns="http://www.w3.org/2000/svg">
<path d="M12.375 12.9375H5.625C5.47582 12.9375 5.33274 12.9968 5.22725 13.1023C5.12176 13.2077 5.0625 13.3508 5.0625 13.5C5.0625 13.6492 5.12176 13.7923 5.22725 13.8977C5.33274 14.0032 5.47582 14.0625 5.625 14.0625H12.375C12.5242 14.0625 12.6673 14.0032 12.7727 13.8977C12.8782 13.7923 12.9375 13.6492 12.9375 13.5C12.9375 13.3508 12.8782 13.2077 12.7727 13.1023C12.6673 12.9968 12.5242 12.9375 12.375 12.9375Z" fill="#1D2B39"/>
<path d="M8.60254 11.647C8.70831 11.7524 8.85156 11.8116 9.0009 11.8116C9.15024 11.8116 9.29349 11.7524 9.39926 11.647L11.6486 9.39769C11.7511 9.2916 11.8077 9.14951 11.8065 9.00202C11.8052 8.85454 11.746 8.71346 11.6417 8.60916C11.5374 8.50487 11.3964 8.44571 11.2489 8.44443C11.1014 8.44315 10.9593 8.49985 10.8532 8.60231L9.5634 9.89213V4.5C9.5634 4.35082 9.50414 4.20774 9.39865 4.10225C9.29316 3.99676 9.15008 3.9375 9.0009 3.9375C8.85172 3.9375 8.70864 3.99676 8.60315 4.10225C8.49766 4.20774 8.4384 4.35082 8.4384 4.5V9.89213L7.14859 8.60231C7.0425 8.49985 6.90041 8.44315 6.75292 8.44443C6.60544 8.44571 6.46436 8.50487 6.36006 8.60916C6.25577 8.71346 6.19662 8.85454 6.19533 9.00202C6.19405 9.14951 6.25075 9.2916 6.35321 9.39769L8.60254 11.647Z" fill="#1D2B39"/>
</svg>
