<svg width="25" height="25" viewBox="0 0 25 25" fill="none" xmlns="http://www.w3.org/2000/svg">
<path d="M12.5 1.51367C6.43066 1.51367 1.51367 6.43066 1.51367 12.5C1.51367 18.5693 6.43066 23.4863 12.5 23.4863C18.5693 23.4863 23.4863 18.5693 23.4863 12.5C23.4863 6.43066 18.5693 1.51367 12.5 1.51367ZM15.6543 8.40332C15.6543 8.40332 14.4922 8.39355 14.1992 8.39355C13.7598 8.39355 13.4668 8.77441 13.4668 9.16016V10.7764H15.6543L15.4053 12.9785H13.4424V18.6035H11.2207V13.0078H9.3457V10.752H11.25C11.25 10.752 11.25 9.96094 11.25 8.62305C11.25 7.43652 12.5684 6.3916 13.4863 6.3916C13.623 6.3916 15.6543 6.41113 15.6543 6.41113V8.40332Z" fill="#CD9646"/>
</svg>
