<svg width="24" height="24" viewBox="0 0 24 24" fill="none" xmlns="http://www.w3.org/2000/svg">
<g clip-path="url(#clip0_140_3649)">
<path d="M19.5 0.75H4.5C3.50575 0.751032 2.55253 1.14645 1.84949 1.84949C1.14645 2.55253 0.751032 3.50575 0.75 4.5V19.5C0.751032 20.4942 1.14645 21.4475 1.84949 22.1505C2.55253 22.8535 3.50575 23.249 4.5 23.25H19.5C20.4942 23.249 21.4475 22.8535 22.1505 22.1505C22.8535 21.4475 23.249 20.4942 23.25 19.5V4.5C23.249 3.50575 22.8535 2.55253 22.1505 1.84949C21.4475 1.14645 20.4942 0.751032 19.5 0.75ZM21.75 19.5C21.7493 20.0965 21.5121 20.6684 21.0902 21.0902C20.6684 21.5121 20.0965 21.7493 19.5 21.75H4.5C3.90347 21.7493 3.33157 21.5121 2.90976 21.0902C2.48794 20.6684 2.25067 20.0965 2.25 19.5V4.5C2.25067 3.90347 2.48794 3.33157 2.90976 2.90976C3.33157 2.48794 3.90347 2.25067 4.5 2.25H19.5C20.0965 2.25067 20.6684 2.48794 21.0902 2.90976C21.5121 3.33157 21.7493 3.90347 21.75 4.5V19.5Z" fill="#1D2B39"/>
<path d="M17.25 5.25H6.75C6.35228 5.25036 5.97096 5.40851 5.68973 5.68973C5.40851 5.97096 5.25036 6.35228 5.25 6.75V11.25C5.25036 11.6477 5.40851 12.029 5.68973 12.3103C5.97096 12.5915 6.35228 12.7496 6.75 12.75H17.25C17.6477 12.7496 18.029 12.5915 18.3103 12.3103C18.5915 12.029 18.7496 11.6477 18.75 11.25V6.75C18.7496 6.35228 18.5915 5.97096 18.3103 5.68973C18.029 5.40851 17.6477 5.25036 17.25 5.25ZM17.25 12V11.25H6.75V6.75H17.25V11.25H17.2515L17.25 12Z" fill="#1D2B39"/>
<path d="M18 14.25H6C5.80109 14.25 5.61032 14.329 5.46967 14.4697C5.32902 14.6103 5.25 14.8011 5.25 15C5.25 15.1989 5.32902 15.3897 5.46967 15.5303C5.61032 15.671 5.80109 15.75 6 15.75H18C18.1989 15.75 18.3897 15.671 18.5303 15.5303C18.671 15.3897 18.75 15.1989 18.75 15C18.75 14.8011 18.671 14.6103 18.5303 14.4697C18.3897 14.329 18.1989 14.25 18 14.25Z" fill="#1D2B39"/>
<path d="M18 17.25H6C5.80109 17.25 5.61032 17.329 5.46967 17.4697C5.32902 17.6103 5.25 17.8011 5.25 18C5.25 18.1989 5.32902 18.3897 5.46967 18.5303C5.61032 18.671 5.80109 18.75 6 18.75H18C18.1989 18.75 18.3897 18.671 18.5303 18.5303C18.671 18.3897 18.75 18.1989 18.75 18C18.75 17.8011 18.671 17.6103 18.5303 17.4697C18.3897 17.329 18.1989 17.25 18 17.25Z" fill="#1D2B39"/>
</g>
<defs>
<clipPath id="clip0_140_3649">
<rect width="24" height="24" fill="white"/>
</clipPath>
</defs>
</svg>
