<svg width="18" height="18" viewBox="0 0 18 18" fill="none" xmlns="http://www.w3.org/2000/svg">
<g clip-path="url(#clip0_140_481)">
<path d="M10.1246 8.1V10.35H15.4346C14.8946 13.5 12.3746 15.75 9.22461 15.75C5.53461 15.75 2.47461 12.69 2.47461 9C2.47461 5.31 5.53461 2.25 9.22461 2.25C11.1146 2.25 12.7346 3.06 13.9046 4.32L15.5246 2.7C13.9046 1.08 11.7446 0 9.22461 0C4.27461 0 0.224609 4.05 0.224609 9C0.224609 13.95 4.27461 18 9.22461 18C14.1746 18 17.7746 13.95 17.7746 9V8.1H10.1246Z" fill="white"/>
</g>
<defs>
<clipPath id="clip0_140_481">
<rect width="18" height="18" fill="white"/>
</clipPath>
</defs>
</svg>
