<svg width="372" height="14" viewBox="0 0 372 14" fill="none" xmlns="http://www.w3.org/2000/svg">
<path d="M184.881 10.244C184.265 10.852 183.517 11.156 182.637 11.156C181.757 11.156 181.009 10.852 180.393 10.244C179.785 9.636 179.481 8.888 179.481 8C179.481 7.112 179.785 6.364 180.393 5.756C181.009 5.148 181.757 4.844 182.637 4.844C183.517 4.844 184.265 5.148 184.881 5.756C185.497 6.364 185.805 7.112 185.805 8C185.805 8.888 185.497 9.636 184.881 10.244ZM182.637 10.136C183.237 10.136 183.741 9.932 184.149 9.524C184.557 9.116 184.761 8.608 184.761 8C184.761 7.392 184.557 6.884 184.149 6.476C183.741 6.068 183.237 5.864 182.637 5.864C182.045 5.864 181.545 6.068 181.137 6.476C180.729 6.884 180.525 7.392 180.525 8C180.525 8.608 180.729 9.116 181.137 9.524C181.545 9.932 182.045 10.136 182.637 10.136ZM188.08 6.008C188.424 5.264 189.048 4.892 189.952 4.892V5.984C189.44 5.96 189 6.096 188.632 6.392C188.264 6.688 188.08 7.164 188.08 7.82V11H187.036V5H188.08V6.008Z" fill="#777E87"/>
<line x1="372" y1="7.5" x2="204.6" y2="7.49999" stroke="#F5F5F5"/>
<line x1="167.4" y1="7.5" x2="0.000396678" y2="7.49999" stroke="#F5F5F5"/>
</svg>
