<svg width="30" height="30" viewBox="0 0 30 30" fill="none" xmlns="http://www.w3.org/2000/svg">
<path d="M6.67969 26.875H18.3203C20.5078 26.875 22.2656 25.1172 22.2656 22.9297V13.9844C22.2656 13.5547 21.9141 13.2031 21.4844 13.2031H17.9688V10.8984C17.9688 9.57031 16.9141 8.51562 15.5859 8.51562H9.41406C8.08594 8.51562 7.03125 9.57031 7.03125 10.8984V13.2031H3.51562C3.08594 13.2031 2.73438 13.5547 2.73438 13.9844V22.9297C2.73438 25.1172 4.49219 26.875 6.67969 26.875ZM8.59375 10.8984C8.59375 10.4297 8.94531 10.0781 9.41406 10.0781H15.5859C16.0547 10.0781 16.4062 10.4297 16.4062 10.8984V13.2031H8.59375V10.8984ZM4.29688 14.7656H7.03125V16.3281C7.03125 16.7578 7.38281 17.1094 7.8125 17.1094C8.24219 17.1094 8.59375 16.7578 8.59375 16.3281V14.7656H16.4062V16.3281C16.4062 16.7578 16.7578 17.1094 17.1875 17.1094C17.6172 17.1094 17.9688 16.7578 17.9688 16.3281V14.7656H20.7031V22.9297C20.7031 24.2578 19.6484 25.3125 18.3203 25.3125H6.67969C5.35156 25.3125 4.29688 24.2578 4.29688 22.9297V14.7656Z" fill="white"/>
<path d="M28.006 5.274C28.462 5.382 28.831 5.595 29.113 5.913C29.401 6.225 29.545 6.618 29.545 7.092C29.545 7.722 29.332 8.217 28.906 8.577C28.48 8.937 27.958 9.117 27.34 9.117C26.86 9.117 26.428 9.006 26.044 8.784C25.666 8.562 25.393 8.238 25.225 7.812L26.107 7.299C26.293 7.839 26.704 8.109 27.34 8.109C27.7 8.109 27.985 8.019 28.195 7.839C28.405 7.653 28.51 7.404 28.51 7.092C28.51 6.78 28.405 6.534 28.195 6.354C27.985 6.174 27.7 6.084 27.34 6.084H27.106L26.692 5.463L28.051 3.672H25.414V2.7H29.284V3.582L28.006 5.274Z" fill="white"/>
</svg>
