<svg width="25" height="25" viewBox="0 0 25 25" fill="none" xmlns="http://www.w3.org/2000/svg">
<path d="M12.5 1.51367C6.43066 1.51367 1.51367 6.43066 1.51367 12.5C1.51367 18.5693 6.43066 23.4863 12.5 23.4863C18.5693 23.4863 23.4863 18.5693 23.4863 12.5C23.4863 6.43066 18.5693 1.51367 12.5 1.51367ZM9.38965 18.6035H6.46973V10.4395H9.38965V18.6035ZM7.92969 9.31641C7.12402 9.31641 6.46973 8.66211 6.46973 7.85644C6.46973 7.05078 7.12402 6.39648 7.92969 6.39648C8.73535 6.39648 9.38965 7.05078 9.38965 7.85644C9.38965 8.66211 8.73535 9.31641 7.92969 9.31641ZM18.5352 18.6035H16.1279C16.1279 18.6035 16.1426 13.8428 16.1523 13.6963C16.167 13.5498 16.0205 12.3486 14.79 12.3486C13.5596 12.3486 13.1738 13.2275 13.1738 13.8965V18.6035H10.8936V10.4395H13.1494V11.5723C13.1494 11.5723 13.4961 10.4297 15.5811 10.4297C17.2998 10.4297 18.5303 11.0986 18.5303 12.9395C18.5352 13.96 18.5352 18.6035 18.5352 18.6035Z" fill="#CD9646"/>
</svg>
