<svg width="18" height="18" viewBox="0 0 18 18" fill="none" xmlns="http://www.w3.org/2000/svg">
<path d="M16.2005 16.2V10.926C16.2005 8.33397 15.6425 6.35397 12.6185 6.35397C11.1605 6.35397 10.1885 7.14597 9.79253 7.90197H9.75653V6.58797H6.89453V16.2H9.88253V11.43C9.88253 10.17 10.1165 8.96397 11.6645 8.96397C13.1945 8.96397 13.2125 10.386 13.2125 11.502V16.182H16.2005V16.2Z" fill="#AEAEAE"/>
<path d="M2.03516 6.58798H5.02316V16.2H2.03516V6.58798Z" fill="#AEAEAE"/>
<path d="M3.52878 1.79999C2.57478 1.79999 1.80078 2.57399 1.80078 3.52799C1.80078 4.48199 2.57478 5.27399 3.52878 5.27399C4.48278 5.27399 5.25678 4.48199 5.25678 3.52799C5.25678 2.57399 4.48278 1.79999 3.52878 1.79999Z" fill="#AEAEAE"/>
</svg>
