<svg width="16" height="16" viewBox="0 0 16 16" fill="none" xmlns="http://www.w3.org/2000/svg">
<path d="M7.6516 15.3594C7.74485 15.4496 7.86953 15.5001 7.9993 15.5001C8.12906 15.5001 8.25374 15.4496 8.347 15.3594L12.5893 11.2588C13.191 10.6822 13.6699 9.98988 13.997 9.2234C14.3241 8.45692 14.4927 7.63217 14.4927 6.7988C14.4927 5.96543 14.3241 5.14069 13.997 4.3742C13.6699 3.60772 13.191 2.91536 12.5893 2.3388C11.3517 1.1604 9.70821 0.503143 7.9993 0.503143C6.29038 0.503143 4.64693 1.1604 3.4093 2.3388C2.80757 2.91536 2.32873 3.60772 2.00161 4.3742C1.67449 5.14069 1.50586 5.96543 1.50586 6.7988C1.50586 7.63217 1.67449 8.45692 2.00161 9.2234C2.32873 9.98988 2.80757 10.6822 3.4093 11.2588L7.6516 15.3594ZM4.1048 3.0576C5.15501 2.05796 6.54939 1.50044 7.9993 1.50044C9.4492 1.50044 10.8436 2.05796 11.8938 3.0576C12.3991 3.5409 12.8013 4.12157 13.0761 4.76456C13.3509 5.40756 13.4925 6.09956 13.4925 6.7988C13.4925 7.49804 13.3509 8.19004 13.0761 8.83304C12.8013 9.47603 12.3991 10.0567 11.8938 10.54L7.9993 14.3047L4.1048 10.54C3.59946 10.0567 3.19728 9.47603 2.92251 8.83304C2.64774 8.19004 2.50608 7.49804 2.50608 6.7988C2.50608 6.09956 2.64774 5.40756 2.92251 4.76456C3.19728 4.12157 3.59946 3.5409 4.1048 3.0576Z" fill="#1D2B39"/>
<path d="M8 9.5C8.49445 9.5 8.9778 9.35338 9.38893 9.07868C9.80005 8.80397 10.1205 8.41353 10.3097 7.95671C10.4989 7.49989 10.5484 6.99723 10.452 6.51228C10.3555 6.02732 10.1174 5.58187 9.76777 5.23223C9.41814 4.8826 8.97268 4.6445 8.48773 4.54804C8.00277 4.45157 7.50011 4.50108 7.04329 4.6903C6.58648 4.87952 6.19603 5.19995 5.92133 5.61108C5.64662 6.0222 5.5 6.50555 5.5 7C5.50061 7.66286 5.7642 8.29839 6.23291 8.7671C6.70161 9.23581 7.33715 9.49939 8 9.5ZM8 5.5C8.29667 5.5 8.58668 5.58797 8.83335 5.7528C9.08003 5.91762 9.27229 6.15189 9.38582 6.42598C9.49935 6.70007 9.52906 7.00167 9.47118 7.29264C9.4133 7.58361 9.27044 7.85088 9.06066 8.06066C8.85088 8.27044 8.58361 8.4133 8.29264 8.47118C8.00166 8.52906 7.70006 8.49935 7.42597 8.38582C7.15189 8.27229 6.91762 8.08003 6.7528 7.83336C6.58797 7.58668 6.5 7.29667 6.5 7C6.50045 6.60231 6.65863 6.22105 6.93984 5.93984C7.22104 5.65863 7.60231 5.50045 8 5.5Z" fill="#1D2B39"/>
</svg>
