<svg width="16" height="16" viewBox="0 0 16 16" fill="none" xmlns="http://www.w3.org/2000/svg">
<path d="M14 2H2C1.60231 2.00045 1.22104 2.15863 0.939837 2.43984C0.65863 2.72104 0.50045 3.10231 0.5 3.5V12.5C0.50045 12.8977 0.65863 13.279 0.939837 13.5602C1.22104 13.8414 1.60231 13.9995 2 14H14C14.3977 13.9995 14.779 13.8414 15.0602 13.5602C15.3414 13.279 15.4995 12.8977 15.5 12.5V3.5C15.4995 3.10231 15.3414 2.72104 15.0602 2.43984C14.779 2.15863 14.3977 2.00045 14 2ZM1.5 5.7585L6.73 8L1.5 10.2415V5.7585ZM14.5 12.5C14.4998 12.6326 14.4471 12.7596 14.3534 12.8534C14.2596 12.9471 14.1326 12.9998 14 13H2C1.86744 12.9998 1.74036 12.9471 1.64662 12.8534C1.55289 12.7596 1.50016 12.6326 1.5 12.5V11.33L14.5 5.7584V12.5ZM14.5 4.67L8 7.4556L1.5 4.67V3.5C1.50016 3.36744 1.55289 3.24036 1.64662 3.14662C1.74036 3.05289 1.86744 3.00016 2 3H14C14.1326 3.00016 14.2596 3.05289 14.3534 3.14662C14.4471 3.24036 14.4998 3.36744 14.5 3.5V4.67Z" fill="#1D2B39"/>
<path d="M10 10H13C13.1326 10 13.2598 9.94732 13.3536 9.85355C13.4473 9.75979 13.5 9.63261 13.5 9.5C13.5 9.36739 13.4473 9.24021 13.3536 9.14645C13.2598 9.05268 13.1326 9 13 9H10C9.86739 9 9.74021 9.05268 9.64645 9.14645C9.55268 9.24021 9.5 9.36739 9.5 9.5C9.5 9.63261 9.55268 9.75979 9.64645 9.85355C9.74021 9.94732 9.86739 10 10 10Z" fill="#1D2B39"/>
<path d="M10 12H13C13.1326 12 13.2598 11.9473 13.3536 11.8536C13.4473 11.7598 13.5 11.6326 13.5 11.5C13.5 11.3674 13.4473 11.2402 13.3536 11.1464C13.2598 11.0527 13.1326 11 13 11H10C9.86739 11 9.74021 11.0527 9.64645 11.1464C9.55268 11.2402 9.5 11.3674 9.5 11.5C9.5 11.6326 9.55268 11.7598 9.64645 11.8536C9.74021 11.9473 9.86739 12 10 12Z" fill="#1D2B39"/>
</svg>
