<svg width="16" height="16" viewBox="0 0 16 16" fill="none" xmlns="http://www.w3.org/2000/svg">
<g clip-path="url(#clip0_140_3658)">
<path d="M13.8224 10.0562C13.5993 9.83069 13.3173 9.67246 13.0085 9.59957C12.6998 9.52668 12.3767 9.54208 12.0763 9.644L10.5182 10.1631L5.83752 5.4824L6.35662 3.9243C6.45804 3.62391 6.47318 3.30109 6.40031 2.99252C6.32745 2.68395 6.1695 2.402 5.94442 2.1787L4.76572 1C4.44063 0.689974 4.00865 0.517014 3.55942 0.517014C3.11019 0.517014 2.67821 0.689974 2.35312 1L1.99382 1.3594C1.61483 1.73919 1.32872 2.20141 1.15782 2.71L0.677821 4.151C0.474437 4.76043 0.444876 5.41446 0.592454 6.03975C0.740031 6.66503 1.05891 7.23683 1.51332 7.691L8.30922 14.4869C8.76345 14.9411 9.33514 15.2598 9.96027 15.4075C10.5854 15.5551 11.2393 15.5258 11.8487 15.3229L13.2897 14.8424C13.7988 14.6719 14.2615 14.3859 14.6417 14.0069L15.0006 13.6475C15.1591 13.4891 15.2849 13.3011 15.3707 13.0941C15.4564 12.8871 15.5006 12.6653 15.5006 12.4412C15.5006 12.2171 15.4564 11.9953 15.3707 11.7883C15.2849 11.5813 15.1591 11.3933 15.0006 11.2349L13.8224 10.0562ZM14.2931 12.9404L13.9347 13.2998C13.6645 13.5692 13.3356 13.7725 12.9737 13.8936L11.5328 14.3736C11.0994 14.5156 10.6352 14.5353 10.1913 14.4306C9.7474 14.3259 9.34098 14.1007 9.01672 13.78L2.22062 6.9839C1.89761 6.66112 1.67095 6.2547 1.56608 5.81026C1.46121 5.36581 1.48228 4.90094 1.62692 4.4678L2.10662 3.0269C2.22788 2.66521 2.43118 2.33647 2.70062 2.0664L3.06062 1.707C3.12615 1.64139 3.20398 1.58933 3.28964 1.55382C3.37531 1.5183 3.46713 1.50002 3.55987 1.50002C3.65261 1.50002 3.74443 1.5183 3.8301 1.55382C3.91576 1.58933 3.99359 1.64139 4.05912 1.707L5.23742 2.8862C5.33056 2.97847 5.39596 3.09502 5.42617 3.22259C5.45638 3.35017 5.45019 3.48367 5.40832 3.6079L4.79112 5.46C4.76173 5.54808 4.75744 5.64261 4.77874 5.73298C4.80004 5.82336 4.84609 5.90602 4.91172 5.9717L10.0294 11.0894C10.095 11.1552 10.1776 11.2014 10.2681 11.2227C10.3585 11.2441 10.4531 11.2396 10.5411 11.21L12.3927 10.5928C12.5171 10.5511 12.6506 10.5451 12.7782 10.5753C12.9058 10.6055 13.0224 10.6707 13.1149 10.7637L14.2936 11.9424C14.3593 12.0079 14.4114 12.0857 14.447 12.1714C14.4825 12.257 14.5009 12.3489 14.5009 12.4417C14.5009 12.5344 14.4825 12.6263 14.447 12.7119C14.4114 12.7976 14.3588 12.8749 14.2931 12.9404Z" fill="#1D2B39"/>
<path d="M9.00225 0.500001H9.00075C8.93509 0.499902 8.87005 0.512737 8.80935 0.537774C8.74865 0.56281 8.69348 0.599557 8.64698 0.645917C8.60048 0.692276 8.56357 0.747341 8.53835 0.807966C8.51313 0.868591 8.5001 0.93359 8.5 0.999251C8.4999 1.06491 8.51274 1.12995 8.53777 1.19065C8.56281 1.25135 8.59956 1.30652 8.64592 1.35302C8.69228 1.39952 8.74734 1.43643 8.80797 1.46165C8.86859 1.48687 8.93359 1.4999 8.99925 1.5C10.4568 1.50406 11.8536 2.08478 12.8844 3.11531C13.9152 4.14584 14.4963 5.54242 14.5008 7C14.5008 7.13261 14.5534 7.25979 14.6472 7.35355C14.741 7.44732 14.8681 7.5 15.0008 7.5C15.1334 7.5 15.2605 7.44732 15.3543 7.35355C15.4481 7.25979 15.5008 7.13261 15.5008 7C15.4958 5.27789 14.8096 3.62771 13.592 2.40984C12.3744 1.19198 10.7244 0.505382 9.00225 0.500001Z" fill="#1D2B39"/>
<path d="M11.0659 7C11.0659 7.13261 11.1186 7.25978 11.2123 7.35355C11.3061 7.44732 11.4333 7.5 11.5659 7.5C11.6985 7.5 11.8257 7.44732 11.9195 7.35355C12.0132 7.25978 12.0659 7.13261 12.0659 7C12.0626 6.1878 11.7391 5.40968 11.1655 4.83463C10.5919 4.25958 9.81459 3.93404 9.0024 3.9287H8.9995C8.86689 3.92831 8.73956 3.98062 8.64552 4.07412C8.55148 4.16762 8.49843 4.29464 8.49805 4.42725C8.49766 4.55986 8.54997 4.68719 8.64347 4.78123C8.73697 4.87527 8.86399 4.92831 8.9966 4.9287C9.26898 4.92704 9.53897 4.97949 9.79091 5.08302C10.0429 5.18655 10.2717 5.33909 10.4642 5.53179C10.6567 5.72448 10.8091 5.9535 10.9123 6.20554C11.0156 6.45758 11.0678 6.72762 11.0659 7Z" fill="#1D2B39"/>
</g>
<defs>
<clipPath id="clip0_140_3658">
<rect width="16" height="16" fill="white"/>
</clipPath>
</defs>
</svg>
