<svg width="16" height="16" viewBox="0 0 16 16" fill="none" xmlns="http://www.w3.org/2000/svg">
<g clip-path="url(#clip0_140_3991)">
<path d="M12.3382 10.7624C11.5716 10.7624 10.881 11.0935 10.4016 11.6201L6.08996 8.94966C6.20507 8.65498 6.26891 8.33491 6.26891 8.00008C6.26891 7.66511 6.20507 7.34505 6.08996 7.05049L10.4016 4.37997C10.881 4.90658 11.5716 5.23775 12.3382 5.23775C13.7823 5.23775 14.9571 4.06295 14.9571 2.61886C14.9571 1.17477 13.7823 9.15527e-05 12.3382 9.15527e-05C10.8941 9.15527e-05 9.71934 1.17489 9.71934 2.61898C9.71934 2.95382 9.78331 3.27389 9.8983 3.56857L5.58678 6.23897C5.10741 5.71236 4.41674 5.38118 3.65014 5.38118C2.20605 5.38118 1.03125 6.55611 1.03125 8.00008C1.03125 9.44416 2.20605 10.619 3.65014 10.619C4.41674 10.619 5.10741 10.2879 5.58678 9.76118L9.8983 12.4316C9.78331 12.7263 9.71934 13.0463 9.71934 13.3813C9.71934 14.8253 10.8941 16.0001 12.3382 16.0001C13.7823 16.0001 14.9571 14.8253 14.9571 13.3813C14.9571 11.9372 13.7823 10.7624 12.3382 10.7624ZM10.6743 2.61898C10.6743 1.7015 11.4208 0.955046 12.3382 0.955046C13.2557 0.955046 14.0022 1.7015 14.0022 2.61898C14.0022 3.53646 13.2557 4.28292 12.3382 4.28292C11.4208 4.28292 10.6743 3.53646 10.6743 2.61898ZM3.65014 9.66401C2.73254 9.66401 1.98608 8.91755 1.98608 8.00008C1.98608 7.0826 2.73254 6.33614 3.65014 6.33614C4.56762 6.33614 5.31396 7.0826 5.31396 8.00008C5.31396 8.91755 4.56762 9.66401 3.65014 9.66401ZM10.6743 13.3812C10.6743 12.4637 11.4208 11.7172 12.3382 11.7172C13.2557 11.7172 14.0022 12.4637 14.0022 13.3812C14.0022 14.2986 13.2557 15.0451 12.3382 15.0451C11.4208 15.0451 10.6743 14.2986 10.6743 13.3812Z" fill="#1D2B39"/>
</g>
<defs>
<clipPath id="clip0_140_3991">
<rect width="16" height="16" fill="white"/>
</clipPath>
</defs>
</svg>
