<svg width="16" height="16" viewBox="0 0 16 16" fill="none" xmlns="http://www.w3.org/2000/svg">
<g clip-path="url(#clip0_140_3675)">
<path d="M8 15.5C9.48336 15.5 10.9334 15.0601 12.1668 14.236C13.4001 13.4119 14.3614 12.2406 14.9291 10.8701C15.4968 9.49968 15.6453 7.99168 15.3559 6.53683C15.0665 5.08197 14.3522 3.7456 13.3033 2.6967C12.2544 1.64781 10.918 0.933503 9.46318 0.644114C8.00832 0.354725 6.50032 0.50325 5.12987 1.07091C3.75943 1.63856 2.58809 2.59986 1.76398 3.83323C0.939867 5.0666 0.5 6.51664 0.5 8C0.502197 9.98845 1.29308 11.8948 2.69913 13.3009C4.10517 14.7069 6.01155 15.4978 8 15.5ZM8 1.5C9.28558 1.5 10.5423 1.88122 11.6112 2.59545C12.6801 3.30968 13.5132 4.32484 14.0052 5.51256C14.4972 6.70028 14.6259 8.00721 14.3751 9.26809C14.1243 10.529 13.5052 11.6872 12.5962 12.5962C11.6872 13.5052 10.529 14.1243 9.26809 14.3751C8.00721 14.6259 6.70028 14.4972 5.51256 14.0052C4.32484 13.5133 3.30968 12.6801 2.59545 11.6112C1.88122 10.5423 1.5 9.28558 1.5 8C1.50198 6.27671 2.18744 4.62456 3.406 3.406C4.62455 2.18745 6.2767 1.50199 8 1.5Z" fill="#1D2B39"/>
<path d="M9.6465 10.3535C9.7408 10.4446 9.8671 10.495 9.9982 10.4938C10.1293 10.4927 10.2547 10.4401 10.3474 10.3474C10.4401 10.2547 10.4927 10.1293 10.4938 9.9982C10.495 9.8671 10.4446 9.7408 10.3535 9.6465L8.5 7.793V4C8.5 3.86739 8.44732 3.74021 8.35355 3.64645C8.25979 3.55268 8.13261 3.5 8 3.5C7.86739 3.5 7.74021 3.55268 7.64645 3.64645C7.55268 3.74021 7.5 3.86739 7.5 4V8C7.49998 8.06566 7.5129 8.13068 7.53804 8.19134C7.56318 8.252 7.60004 8.3071 7.6465 8.3535L9.6465 10.3535Z" fill="#1D2B39"/>
</g>
<defs>
<clipPath id="clip0_140_3675">
<rect width="16" height="16" fill="white"/>
</clipPath>
</defs>
</svg>
