<svg width="21" height="17" viewBox="0 0 21 17" fill="none" xmlns="http://www.w3.org/2000/svg">
<path d="M20.383 2.15605C19.6196 2.49374 18.81 2.71552 17.981 2.81405C18.8548 2.29148 19.5087 1.46906 19.821 0.500049C19.001 0.988049 18.102 1.33005 17.165 1.51505C16.5356 0.841628 15.7014 0.395012 14.792 0.244633C13.8826 0.094255 12.9489 0.24854 12.1363 0.683502C11.3236 1.11846 10.6774 1.80973 10.2981 2.64984C9.91884 3.48995 9.82775 4.43183 10.039 5.32905C8.37611 5.2457 6.74933 4.81357 5.26429 4.06071C3.77924 3.30785 2.46913 2.2511 1.419 0.959049C1.04729 1.5975 0.851955 2.32328 0.853 3.06205C0.853 4.51205 1.591 5.79305 2.713 6.54305C2.04901 6.52215 1.39963 6.34283 0.819 6.02005V6.07205C0.8192 7.03775 1.15337 7.97366 1.76485 8.72111C2.37633 9.46855 3.22748 9.98152 4.174 10.173C3.55761 10.3401 2.91131 10.3647 2.284 10.245C2.55087 11.0763 3.07101 11.8032 3.77159 12.3242C4.47218 12.8451 5.31813 13.1338 6.191 13.15C5.32348 13.8314 4.33018 14.335 3.26788 14.6322C2.20558 14.9294 1.09513 15.0143 0 14.882C1.9117 16.1115 4.1371 16.7642 6.41 16.762C14.103 16.762 18.31 10.389 18.31 4.86205C18.31 4.68205 18.305 4.50005 18.297 4.32205C19.1159 3.73022 19.8226 2.99707 20.384 2.15705L20.383 2.15605Z" fill="#607B96"/>
</svg>
