<svg width="5" height="18" viewBox="0 0 5 18" fill="none" xmlns="http://www.w3.org/2000/svg">
<path d="M4.1543 2.07692C4.1543 2.62776 3.93548 3.15604 3.54598 3.54554C3.15648 3.93504 2.62821 4.15385 2.07738 4.15385C1.52654 4.15385 0.998267 3.93504 0.608769 3.54554C0.21927 3.15604 0.000452432 2.62776 0.00045248 2.07692C0.000452528 1.52609 0.219271 0.997802 0.608769 0.608305C0.998268 0.218805 1.52654 -2.29726e-07 2.07738 -1.8157e-07C2.62821 -1.33415e-07 3.15648 0.218805 3.54598 0.608305C3.93548 0.997803 4.1543 1.52609 4.1543 2.07692V2.07692ZM4.1543 9C4.1543 9.55083 3.93548 10.0791 3.54598 10.4686C3.15648 10.8581 2.62821 11.0769 2.07737 11.0769C1.52654 11.0769 0.998267 10.8581 0.608768 10.4686C0.21927 10.0791 0.000451827 9.55083 0.000451875 9C0.000451923 8.44916 0.21927 7.92088 0.608769 7.53138C0.998267 7.14188 1.52654 6.92308 2.07737 6.92308C2.62821 6.92308 3.15648 7.14188 3.54598 7.53138C3.93548 7.92088 4.1543 8.44917 4.1543 9V9ZM4.1543 15.9231C4.1543 16.4739 3.93548 17.0022 3.54598 17.3917C3.15648 17.7812 2.62821 18 2.07737 18C1.52654 18 0.998266 17.7812 0.608768 17.3917C0.219269 17.0022 0.000451221 16.4739 0.00045127 15.9231C0.000451318 15.3722 0.219269 14.844 0.608768 14.4545C0.998267 14.065 1.52654 13.8462 2.07737 13.8462C2.62821 13.8462 3.15648 14.065 3.54598 14.4545C3.93548 14.844 4.1543 15.3722 4.1543 15.9231V15.9231Z" fill="#1D2B39"/>
</svg>
