<svg width="24" height="24" viewBox="0 0 24 24" fill="none" xmlns="http://www.w3.org/2000/svg">
<path d="M19.5 4.40775H18.75V3.09225C18.75 2.86766 18.6995 2.64594 18.6024 2.44346C18.5052 2.24098 18.3638 2.0629 18.1886 1.92237C18.0134 1.78184 17.8089 1.68243 17.5902 1.6315C17.3714 1.58057 17.144 1.57941 16.9248 1.6281L4.3467 4.4232C3.3813 4.46177 2.46813 4.87182 1.79791 5.56773C1.12769 6.26364 0.752247 7.19158 0.75 8.15775V18.6577C0.751032 19.652 1.14645 20.6052 1.84949 21.3083C2.55253 22.0113 3.50575 22.4067 4.5 22.4077H19.5C20.4942 22.4067 21.4475 22.0113 22.1505 21.3083C22.8535 20.6052 23.249 19.652 23.25 18.6577V8.15775C23.249 7.1635 22.8535 6.21028 22.1505 5.50724C21.4475 4.8042 20.4942 4.40878 19.5 4.40775ZM17.25 3.09225V4.40775H11.3321L17.25 3.09225ZM19.5 20.9077H4.5C3.90347 20.9071 3.33157 20.6698 2.90976 20.248C2.48794 19.8262 2.25067 19.2543 2.25 18.6577V8.15775C2.25064 7.56121 2.48789 6.98928 2.90971 6.56746C3.33153 6.14564 3.90346 5.90838 4.5 5.90775H19.5C20.0965 5.90838 20.6685 6.14564 21.0903 6.56746C21.5121 6.98928 21.7494 7.56121 21.75 8.15775V8.90775H20.25C19.0565 8.90775 17.9119 9.38185 17.068 10.2258C16.2241 11.0697 15.75 12.2143 15.75 13.4077C15.75 14.6012 16.2241 15.7458 17.068 16.5897C17.9119 17.4336 19.0565 17.9077 20.25 17.9077H21.75V18.6577C21.7493 19.2543 21.5121 19.8262 21.0902 20.248C20.6684 20.6698 20.0965 20.9071 19.5 20.9077ZM21.75 16.4077H20.25C19.4544 16.4077 18.6913 16.0917 18.1287 15.5291C17.5661 14.9665 17.25 14.2034 17.25 13.4077C17.25 12.6121 17.5661 11.849 18.1287 11.2864C18.6913 10.7238 19.4544 10.4077 20.25 10.4077H21.75V16.4077Z" fill="#1D2B39"/>
<path d="M4.5 8.90775C4.30109 8.90775 4.11032 8.98676 3.96967 9.12742C3.82902 9.26807 3.75 9.45883 3.75 9.65775V17.1577C3.75 17.3567 3.82902 17.5474 3.96967 17.6881C4.11032 17.8287 4.30109 17.9077 4.5 17.9077C4.69891 17.9077 4.88968 17.8287 5.03033 17.6881C5.17098 17.5474 5.25 17.3567 5.25 17.1577V9.65775C5.25 9.45883 5.17098 9.26807 5.03033 9.12742C4.88968 8.98676 4.69891 8.90775 4.5 8.90775Z" fill="#1D2B39"/>
</svg>
