<svg width="25" height="25" viewBox="0 0 25 25" fill="none" xmlns="http://www.w3.org/2000/svg">
<path d="M10.9473 10.1904V12.5293V14.873L12.8418 13.7012L14.7363 12.5293L12.8418 11.3623L10.9473 10.1904Z" fill="#CD9646"/>
<path d="M12.5 1.51367C6.43066 1.51367 1.51367 6.43066 1.51367 12.5C1.51367 18.5693 6.43066 23.4863 12.5 23.4863C18.5693 23.4863 23.4863 18.5693 23.4863 12.5C23.4863 6.43066 18.5693 1.51367 12.5 1.51367ZM18.6035 14.5361C18.6035 15.7568 17.6074 16.7529 16.3867 16.7529H8.61328C7.39258 16.7529 6.39648 15.7568 6.39648 14.5361V10.4688C6.39648 9.24805 7.39258 8.25195 8.61328 8.25195H16.3867C17.6074 8.25195 18.6035 9.24805 18.6035 10.4688V14.5361Z" fill="#CD9646"/>
</svg>
